<svg width="163" height="52" viewBox="0 0 163 52" fill="none" xmlns="http://www.w3.org/2000/svg">
<rect width="162.815" height="51.9889" fill="#00BCD4"/>
<path d="M44.5639 28.8598C43.8453 28.8598 43.2013 28.7432 42.6319 28.5098C42.0626 28.2765 41.6053 27.9312 41.2599 27.4738C40.9239 27.0165 40.7466 26.4658 40.7279 25.8218H43.2759C43.3133 26.1858 43.4393 26.4658 43.6539 26.6618C43.8686 26.8485 44.1486 26.9418 44.4939 26.9418C44.8486 26.9418 45.1286 26.8625 45.3339 26.7038C45.5393 26.5358 45.6419 26.3072 45.6419 26.0178C45.6419 25.7752 45.5579 25.5745 45.3899 25.4158C45.2313 25.2572 45.0306 25.1265 44.7879 25.0238C44.5546 24.9212 44.2186 24.8045 43.7799 24.6738C43.1453 24.4778 42.6273 24.2818 42.2259 24.0858C41.8246 23.8898 41.4793 23.6005 41.1899 23.2178C40.9006 22.8352 40.7559 22.3358 40.7559 21.7198C40.7559 20.8052 41.0873 20.0912 41.7499 19.5778C42.4126 19.0552 43.2759 18.7938 44.3399 18.7938C45.4226 18.7938 46.2953 19.0552 46.9579 19.5778C47.6206 20.0912 47.9753 20.8098 48.0219 21.7338H45.4319C45.4133 21.4165 45.2966 21.1692 45.0819 20.9918C44.8673 20.8052 44.5919 20.7118 44.2559 20.7118C43.9666 20.7118 43.7333 20.7912 43.5559 20.9498C43.3786 21.0992 43.2899 21.3185 43.2899 21.6078C43.2899 21.9252 43.4393 22.1725 43.7379 22.3498C44.0366 22.5272 44.5033 22.7185 45.1379 22.9238C45.7726 23.1385 46.2859 23.3438 46.6779 23.5398C47.0793 23.7358 47.4246 24.0205 47.7139 24.3938C48.0033 24.7672 48.1479 25.2478 48.1479 25.8358C48.1479 26.3958 48.0033 26.9045 47.7139 27.3618C47.4339 27.8192 47.0233 28.1832 46.4819 28.4538C45.9406 28.7245 45.3013 28.8598 44.5639 28.8598ZM56.9852 24.7298C56.9852 24.9538 56.9712 25.1872 56.9432 25.4298H51.5252C51.5625 25.9152 51.7165 26.2885 51.9872 26.5498C52.2672 26.8018 52.6079 26.9278 53.0092 26.9278C53.6065 26.9278 54.0219 26.6758 54.2552 26.1718H56.8032C56.6725 26.6852 56.4345 27.1472 56.0892 27.5578C55.7532 27.9685 55.3285 28.2905 54.8152 28.5238C54.3019 28.7572 53.7279 28.8738 53.0932 28.8738C52.3279 28.8738 51.6465 28.7105 51.0492 28.3838C50.4519 28.0572 49.9852 27.5905 49.6492 26.9838C49.3132 26.3772 49.1452 25.6678 49.1452 24.8558C49.1452 24.0438 49.3085 23.3345 49.6352 22.7278C49.9712 22.1212 50.4379 21.6545 51.0352 21.3278C51.6325 21.0012 52.3185 20.8378 53.0932 20.8378C53.8492 20.8378 54.5212 20.9965 55.1092 21.3138C55.6972 21.6312 56.1545 22.0838 56.4812 22.6718C56.8172 23.2598 56.9852 23.9458 56.9852 24.7298ZM54.5352 24.0998C54.5352 23.6892 54.3952 23.3625 54.1152 23.1198C53.8352 22.8772 53.4852 22.7558 53.0652 22.7558C52.6639 22.7558 52.3232 22.8725 52.0432 23.1058C51.7725 23.3392 51.6045 23.6705 51.5392 24.0998H54.5352ZM63.0082 20.8658C63.9228 20.8658 64.6508 21.1645 65.1922 21.7618C65.7428 22.3498 66.0182 23.1618 66.0182 24.1978V28.7618H63.6382V24.5198C63.6382 23.9972 63.5028 23.5912 63.2322 23.3018C62.9615 23.0125 62.5975 22.8678 62.1402 22.8678C61.6828 22.8678 61.3188 23.0125 61.0482 23.3018C60.7775 23.5912 60.6422 23.9972 60.6422 24.5198V28.7618H58.2482V20.9498H60.6422V21.9858C60.8848 21.6405 61.2115 21.3698 61.6222 21.1738C62.0328 20.9685 62.4948 20.8658 63.0082 20.8658ZM67.2058 24.8418C67.2058 24.0392 67.3551 23.3345 67.6538 22.7278C67.9618 22.1212 68.3771 21.6545 68.8998 21.3278C69.4224 21.0012 70.0058 20.8378 70.6498 20.8378C71.1631 20.8378 71.6298 20.9452 72.0498 21.1598C72.4791 21.3745 72.8151 21.6638 73.0578 22.0278V18.4018H75.4518V28.7618H73.0578V27.6418C72.8338 28.0152 72.5118 28.3138 72.0918 28.5378C71.6811 28.7618 71.2004 28.8738 70.6498 28.8738C70.0058 28.8738 69.4224 28.7105 68.8998 28.3838C68.3771 28.0478 67.9618 27.5765 67.6538 26.9698C67.3551 26.3538 67.2058 25.6445 67.2058 24.8418ZM73.0578 24.8558C73.0578 24.2585 72.8898 23.7872 72.5538 23.4418C72.2271 23.0965 71.8258 22.9238 71.3498 22.9238C70.8738 22.9238 70.4678 23.0965 70.1318 23.4418C69.8051 23.7778 69.6418 24.2445 69.6418 24.8418C69.6418 25.4392 69.8051 25.9152 70.1318 26.2698C70.4678 26.6152 70.8738 26.7878 71.3498 26.7878C71.8258 26.7878 72.2271 26.6152 72.5538 26.2698C72.8898 25.9245 73.0578 25.4532 73.0578 24.8558ZM82.5445 20.8518V22.8398H85.7505V24.6878H82.5445V26.8438H86.1705V28.7618H80.1505V18.9338H86.1705V20.8518H82.5445ZM97.6927 20.8658C98.6634 20.8658 99.4334 21.1598 100.003 21.7478C100.581 22.3358 100.871 23.1525 100.871 24.1978V28.7618H98.4907V24.5198C98.4907 24.0158 98.3554 23.6285 98.0847 23.3578C97.8234 23.0778 97.4594 22.9378 96.9927 22.9378C96.5261 22.9378 96.1574 23.0778 95.8867 23.3578C95.6254 23.6285 95.4947 24.0158 95.4947 24.5198V28.7618H93.1147V24.5198C93.1147 24.0158 92.9794 23.6285 92.7087 23.3578C92.4474 23.0778 92.0834 22.9378 91.6167 22.9378C91.1501 22.9378 90.7814 23.0778 90.5107 23.3578C90.2494 23.6285 90.1187 24.0158 90.1187 24.5198V28.7618H87.7247V20.9498H90.1187V21.9298C90.3614 21.6032 90.6787 21.3465 91.0707 21.1598C91.4627 20.9638 91.9061 20.8658 92.4007 20.8658C92.9887 20.8658 93.5114 20.9918 93.9687 21.2438C94.4354 21.4958 94.7994 21.8552 95.0607 22.3218C95.3314 21.8925 95.7001 21.5425 96.1667 21.2718C96.6334 21.0012 97.1421 20.8658 97.6927 20.8658ZM102.069 24.8418C102.069 24.0392 102.218 23.3345 102.517 22.7278C102.825 22.1212 103.24 21.6545 103.763 21.3278C104.286 21.0012 104.869 20.8378 105.513 20.8378C106.064 20.8378 106.544 20.9498 106.955 21.1738C107.375 21.3978 107.697 21.6918 107.921 22.0558V20.9498H110.315V28.7618H107.921V27.6558C107.688 28.0198 107.361 28.3138 106.941 28.5378C106.53 28.7618 106.05 28.8738 105.499 28.8738C104.864 28.8738 104.286 28.7105 103.763 28.3838C103.24 28.0478 102.825 27.5765 102.517 26.9698C102.218 26.3538 102.069 25.6445 102.069 24.8418ZM107.921 24.8558C107.921 24.2585 107.753 23.7872 107.417 23.4418C107.09 23.0965 106.689 22.9238 106.213 22.9238C105.737 22.9238 105.331 23.0965 104.995 23.4418C104.668 23.7778 104.505 24.2445 104.505 24.8418C104.505 25.4392 104.668 25.9152 104.995 26.2698C105.331 26.6152 105.737 26.7878 106.213 26.7878C106.689 26.7878 107.09 26.6152 107.417 26.2698C107.753 25.9245 107.921 25.4532 107.921 24.8558ZM113.251 20.1378C112.831 20.1378 112.486 20.0165 112.215 19.7738C111.954 19.5218 111.823 19.2138 111.823 18.8498C111.823 18.4765 111.954 18.1685 112.215 17.9258C112.486 17.6738 112.831 17.5478 113.251 17.5478C113.662 17.5478 113.998 17.6738 114.259 17.9258C114.53 18.1685 114.665 18.4765 114.665 18.8498C114.665 19.2138 114.53 19.5218 114.259 19.7738C113.998 20.0165 113.662 20.1378 113.251 20.1378ZM114.441 20.9498V28.7618H112.047V20.9498H114.441ZM118.57 18.4018V28.7618H116.176V18.4018H118.57ZM123.455 18.5838L123.175 25.2898H121.145L120.865 18.5838H123.455ZM122.195 28.8738C121.775 28.8738 121.429 28.7525 121.159 28.5098C120.897 28.2578 120.767 27.9498 120.767 27.5858C120.767 27.2125 120.897 26.8998 121.159 26.6478C121.429 26.3958 121.775 26.2698 122.195 26.2698C122.605 26.2698 122.941 26.3958 123.203 26.6478C123.473 26.8998 123.609 27.2125 123.609 27.5858C123.609 27.9498 123.473 28.2578 123.203 28.5098C122.941 28.7525 122.605 28.8738 122.195 28.8738Z" fill="white"/>
</svg>
