<svg width="74" height="81" viewBox="0 0 74 81" fill="none" xmlns="http://www.w3.org/2000/svg">
<path d="M63.2083 40.5C63.2083 56.3625 51.4917 69.1875 37 69.1875C22.5083 69.1875 10.7917 56.3625 10.7917 40.5C10.7917 24.6375 22.5083 11.8125 37 11.8125C51.4917 11.8125 63.2083 24.6375 63.2083 40.5Z" fill="white"/>
<path d="M32.375 69.1875V59.9062C32.375 59.4 32.6834 59.0625 33.1459 59.0625C33.6084 59.0625 33.9167 59.4 33.9167 59.9062V69.1875H37V58.2187C37 57.7125 37.3083 57.375 37.7708 57.375C38.2334 57.375 38.5417 57.7125 38.5417 58.2187V69.1875H41.625V59.9062C41.625 59.4 41.9333 59.0625 42.3958 59.0625C42.8584 59.0625 43.1667 59.4 43.1667 59.9062V69.1875H45.9417C46.25 68.6812 46.25 68.175 46.25 67.3313V60.75C46.25 57.0375 43.3209 51.975 39.6209 51.975H35.7667C32.2209 51.975 29.1375 57.2062 29.1375 60.75V67.3313C29.1375 68.0063 29.2917 68.6812 29.4459 69.1875H32.375ZM61.8209 44.55C61.8209 44.55 59.8167 43.875 58.1209 43.875H57.9667C56.2708 43.875 53.4959 44.3812 53.4959 44.3812C53.3417 44.3812 53.3417 44.3812 53.3417 44.2125C53.3417 44.0437 53.3417 44.0437 53.4959 44.0437C53.65 44.0437 56.5792 43.5375 58.275 43.5375C59.9708 43.5375 61.975 44.2125 62.1292 44.2125C62.2833 44.2125 62.2834 44.3812 62.2834 44.55C61.975 44.3812 61.975 44.55 61.8209 44.55ZM61.3583 45.9C61.3583 45.9 59.2 45.225 57.35 45.225C55.9625 45.225 52.725 45.5625 52.5708 45.5625C52.4167 45.5625 52.4167 45.5625 52.4167 45.3937C52.4167 45.225 52.4167 45.225 52.5708 45.225C52.725 45.225 55.9625 44.8875 57.35 44.8875C59.3542 44.8875 61.3583 45.5625 61.3583 45.5625C61.5125 45.5625 61.5125 45.7312 61.5125 45.9C61.5125 45.7312 61.5125 45.9 61.3583 45.9ZM12.025 44.55C11.8709 44.55 11.8708 44.55 11.8708 44.3812C11.8708 44.2125 11.8709 44.2125 12.025 44.0437C13.2584 43.7062 15.725 43.2 17.1125 43.2C18.3459 43.2 22.5084 43.5375 22.6625 43.5375C22.8167 43.5375 22.8167 43.7062 22.8167 43.7062C22.8167 43.875 22.6625 43.875 22.6625 43.875C22.6625 43.875 18.5 43.5375 17.2667 43.5375C15.5708 43.875 13.2584 44.2125 12.025 44.55ZM12.6417 47.0812C12.6417 47.0812 12.4875 47.0812 12.4875 46.9125C12.4875 46.7437 12.4875 46.7437 12.4875 46.575C12.6417 46.575 14.6458 45.225 16.9584 44.8875C18.9625 44.55 23.125 45.0562 23.4334 45.0562C23.5875 45.0562 23.5875 45.225 23.5875 45.225C23.5875 45.3937 23.4334 45.3937 23.4334 45.3937C23.4334 45.3937 19.1167 44.8875 17.1125 45.225C14.8 45.7312 12.6417 47.0812 12.6417 47.0812Z" fill="#455A64"/>
<path d="M21.8917 39.6562C21.8917 32.2312 28.9833 25.3125 37.7708 25.3125C46.5583 25.3125 53.65 32.0625 53.65 39.6562C53.65 47.25 48.5625 52.3125 37.7708 52.3125C26.9792 52.3125 21.8917 47.0812 21.8917 39.6562Z" fill="#455A64"/>
<path d="M44.0917 27.5062C44.0917 27.5062 46.7125 23.625 51.4917 23.625C53.3417 25.65 52.1083 31.725 51.4917 33.4125L44.0917 27.5062ZM31.45 27.5062C31.45 27.5062 28.8292 23.625 24.05 23.625C22.2 25.65 23.4333 31.725 24.05 33.4125L31.45 27.5062ZM30.9875 60.5813C30.9875 60.5813 27.4417 60.5813 26.6708 60.5813C24.8208 60.5813 23.125 59.7375 22.3542 58.05C21.4292 56.1938 20.6583 54.1688 18.3458 52.4813C17.8833 52.1438 18.1917 51.8063 18.9625 51.8063C19.7333 51.975 21.1208 52.1437 22.2 53.6625C23.2792 55.1812 24.5125 57.0375 26.5167 57.0375C28.5208 57.0375 30.6792 57.0375 31.9125 55.5188L30.9875 60.5813Z" fill="#455A64"/>
<path d="M37 6.75C20.0417 6.75 6.16669 21.9375 6.16669 40.5C6.16669 59.0625 20.0417 74.25 37 74.25C53.9584 74.25 67.8334 59.0625 67.8334 40.5C67.8334 21.9375 53.9584 6.75 37 6.75ZM37 67.5C23.4334 67.5 12.3334 55.35 12.3334 40.5C12.3334 25.65 23.4334 13.5 37 13.5C50.5667 13.5 61.6667 25.65 61.6667 40.5C61.6667 55.35 50.5667 67.5 37 67.5Z" fill="#00BCD4"/>
</svg>
