<svg width="74" height="74" viewBox="0 0 74 74" fill="none" xmlns="http://www.w3.org/2000/svg">
<path d="M37 6.16666C28.8225 6.16666 20.9799 9.41517 15.1976 15.1975C9.41519 20.9799 6.16669 28.8225 6.16669 37C6.16669 45.1775 9.41519 53.0201 15.1976 58.8025C20.9799 64.5848 28.8225 67.8333 37 67.8333C45.1775 67.8333 53.0201 64.5848 58.8025 58.8025C64.5849 53.0201 67.8334 45.1775 67.8334 37C67.8334 28.8225 64.5849 20.9799 58.8025 15.1975C53.0201 9.41517 45.1775 6.16666 37 6.16666Z" fill="#0288D1"/>
<path d="M21.5833 29.2917H27.75V52.4167H21.5833V29.2917ZM24.6481 26.2083H24.6142C22.7735 26.2083 21.5833 24.8362 21.5833 23.1235C21.5833 21.3737 22.8105 20.0417 24.6836 20.0417C26.5598 20.0417 27.7145 21.3737 27.75 23.1235C27.75 24.8362 26.5598 26.2083 24.6481 26.2083ZM53.9583 37.7708C53.9583 33.0872 50.1627 29.2917 45.4791 29.2917C42.6086 29.2917 40.0756 30.7223 38.5416 32.9053V29.2917H32.375V52.4167H38.5416V40.0833C38.5416 37.5288 40.6121 35.4583 43.1666 35.4583C45.7212 35.4583 47.7916 37.5288 47.7916 40.0833V52.4167H53.9583C53.9583 52.4167 53.9583 38.4199 53.9583 37.7708Z" fill="white"/>
</svg>
