<svg width="208" height="74" viewBox="0 0 208 74" fill="none" xmlns="http://www.w3.org/2000/svg">
<rect width="207.667" height="73.2943" fill="#00BCD4"/>
<path d="M57.7666 41.3918L54.2626 35.0318H53.2786V41.3918H49.1746V24.5438H56.0626C57.3906 24.5438 58.5186 24.7758 59.4466 25.2398C60.3906 25.7038 61.0946 26.3438 61.5586 27.1598C62.0226 27.9598 62.2546 28.8558 62.2546 29.8478C62.2546 30.9678 61.9346 31.9678 61.2946 32.8478C60.6706 33.7278 59.7426 34.3518 58.5106 34.7198L62.3986 41.3918H57.7666ZM53.2786 32.1278H55.8226C56.5746 32.1278 57.1346 31.9438 57.5026 31.5758C57.8866 31.2078 58.0786 30.6878 58.0786 30.0158C58.0786 29.3758 57.8866 28.8718 57.5026 28.5038C57.1346 28.1358 56.5746 27.9518 55.8226 27.9518H53.2786V32.1278ZM77.4548 34.4798C77.4548 34.8638 77.4308 35.2638 77.3828 35.6798H68.0948C68.1588 36.5118 68.4228 37.1518 68.8868 37.5998C69.3668 38.0318 69.9508 38.2478 70.6388 38.2478C71.6628 38.2478 72.3748 37.8158 72.7748 36.9518H77.1428C76.9188 37.8318 76.5108 38.6238 75.9188 39.3278C75.3428 40.0318 74.6148 40.5838 73.7348 40.9838C72.8548 41.3838 71.8708 41.5838 70.7828 41.5838C69.4708 41.5838 68.3028 41.3038 67.2788 40.7438C66.2548 40.1838 65.4548 39.3838 64.8788 38.3438C64.3028 37.3038 64.0148 36.0878 64.0148 34.6958C64.0148 33.3038 64.2948 32.0878 64.8548 31.0478C65.4308 30.0078 66.2308 29.2078 67.2548 28.6478C68.2788 28.0878 69.4548 27.8078 70.7828 27.8078C72.0788 27.8078 73.2308 28.0798 74.2388 28.6238C75.2468 29.1678 76.0308 29.9438 76.5908 30.9518C77.1668 31.9598 77.4548 33.1358 77.4548 34.4798ZM73.2548 33.3998C73.2548 32.6958 73.0148 32.1358 72.5348 31.7198C72.0548 31.3038 71.4548 31.0958 70.7348 31.0958C70.0468 31.0958 69.4628 31.2958 68.9828 31.6958C68.5188 32.0958 68.2308 32.6638 68.1188 33.3998H73.2548ZM85.0679 41.5838C83.8999 41.5838 82.8599 41.3838 81.9479 40.9838C81.0359 40.5838 80.3159 40.0398 79.7879 39.3518C79.2599 38.6478 78.9639 37.8638 78.8999 36.9998H82.9559C83.0039 37.4638 83.2199 37.8398 83.6039 38.1278C83.9879 38.4158 84.4599 38.5598 85.0199 38.5598C85.5319 38.5598 85.9239 38.4638 86.1959 38.2718C86.4839 38.0638 86.6279 37.7998 86.6279 37.4798C86.6279 37.0958 86.4279 36.8158 86.0279 36.6398C85.6279 36.4478 84.9799 36.2398 84.0839 36.0158C83.1239 35.7918 82.3239 35.5598 81.6839 35.3198C81.0439 35.0638 80.4919 34.6718 80.0279 34.1438C79.5639 33.5998 79.3319 32.8718 79.3319 31.9598C79.3319 31.1918 79.5399 30.4958 79.9559 29.8718C80.3879 29.2318 81.0119 28.7278 81.8279 28.3598C82.6599 27.9918 83.6439 27.8078 84.7799 27.8078C86.4599 27.8078 87.7799 28.2238 88.7399 29.0558C89.7159 29.8878 90.2759 30.9918 90.4199 32.3678H86.6279C86.5639 31.9038 86.3559 31.5358 86.0039 31.2638C85.6679 30.9918 85.2199 30.8558 84.6599 30.8558C84.1799 30.8558 83.8119 30.9518 83.5559 31.1438C83.2999 31.3198 83.1719 31.5678 83.1719 31.8878C83.1719 32.2718 83.3719 32.5598 83.7719 32.7518C84.1879 32.9438 84.8279 33.1358 85.6919 33.3278C86.6839 33.5838 87.4919 33.8398 88.1159 34.0958C88.7399 34.3358 89.2839 34.7358 89.7479 35.2958C90.2279 35.8398 90.4759 36.5758 90.4919 37.5038C90.4919 38.2878 90.2679 38.9918 89.8199 39.6158C89.3879 40.2238 88.7559 40.7038 87.9239 41.0558C87.1079 41.4078 86.1559 41.5838 85.0679 41.5838ZM106.227 27.9998V41.3918H102.123V39.5678C101.707 40.1598 101.139 40.6398 100.419 41.0078C99.7147 41.3598 98.9307 41.5358 98.0667 41.5358C97.0427 41.5358 96.1387 41.3118 95.3547 40.8638C94.5707 40.3998 93.9627 39.7358 93.5307 38.8718C93.0987 38.0078 92.8827 36.9918 92.8827 35.8238V27.9998H96.9627V35.2718C96.9627 36.1678 97.1947 36.8638 97.6587 37.3598C98.1227 37.8558 98.7467 38.1038 99.5307 38.1038C100.331 38.1038 100.963 37.8558 101.427 37.3598C101.891 36.8638 102.123 36.1678 102.123 35.2718V27.9998H106.227ZM126.263 27.8558C127.927 27.8558 129.247 28.3598 130.223 29.3678C131.215 30.3758 131.711 31.7758 131.711 33.5678V41.3918H127.631V34.1198C127.631 33.2558 127.399 32.5918 126.935 32.1278C126.487 31.6478 125.863 31.4078 125.063 31.4078C124.263 31.4078 123.631 31.6478 123.167 32.1278C122.719 32.5918 122.495 33.2558 122.495 34.1198V41.3918H118.415V34.1198C118.415 33.2558 118.183 32.5918 117.719 32.1278C117.271 31.6478 116.647 31.4078 115.847 31.4078C115.047 31.4078 114.415 31.6478 113.951 32.1278C113.503 32.5918 113.279 33.2558 113.279 34.1198V41.3918H109.175V27.9998H113.279V29.6798C113.695 29.1198 114.239 28.6798 114.911 28.3598C115.583 28.0238 116.343 27.8558 117.191 27.8558C118.199 27.8558 119.095 28.0718 119.879 28.5038C120.679 28.9358 121.303 29.5518 121.751 30.3518C122.215 29.6158 122.847 29.0158 123.647 28.5518C124.447 28.0878 125.319 27.8558 126.263 27.8558ZM147.205 34.4798C147.205 34.8638 147.181 35.2638 147.133 35.6798H137.845C137.909 36.5118 138.173 37.1518 138.637 37.5998C139.117 38.0318 139.701 38.2478 140.389 38.2478C141.413 38.2478 142.125 37.8158 142.525 36.9518H146.893C146.669 37.8318 146.261 38.6238 145.669 39.3278C145.093 40.0318 144.365 40.5838 143.485 40.9838C142.605 41.3838 141.621 41.5838 140.533 41.5838C139.221 41.5838 138.053 41.3038 137.029 40.7438C136.005 40.1838 135.205 39.3838 134.629 38.3438C134.053 37.3038 133.765 36.0878 133.765 34.6958C133.765 33.3038 134.045 32.0878 134.605 31.0478C135.181 30.0078 135.981 29.2078 137.005 28.6478C138.029 28.0878 139.205 27.8078 140.533 27.8078C141.829 27.8078 142.981 28.0798 143.989 28.6238C144.997 29.1678 145.781 29.9438 146.341 30.9518C146.917 31.9598 147.205 33.1358 147.205 34.4798ZM143.005 33.3998C143.005 32.6958 142.765 32.1358 142.285 31.7198C141.805 31.3038 141.205 31.0958 140.485 31.0958C139.797 31.0958 139.213 31.2958 138.733 31.6958C138.269 32.0958 137.981 32.6638 137.869 33.3998H143.005Z" fill="white"/>
</svg>
